<?xml version="1.0" encoding="UTF-8"?>
<svg width="100pt" height="100pt" version="1.1" viewBox="0 0 100 100" xmlns="http://www.w3.org/2000/svg">
 <path d="m42.062 11.457c3.4492-0.40234 6.9961-0.22266 10.363-0.19141 1.7188-0.55469 3.582-0.73438 5.3008-0.68359 0.83594 0.027344 1.6484 0.31641 2.2695 0.89062 0 0 1.4844 0.089844 2.7617 0.17969 0.26563 0.019531 1.8945-0.31641 3.4727-0.30859 2.1406 0.023438 4.2617 0.38281 6.3477 0.91406 1.25 0.23047 2.8203 0.042969 3.4648 1.332 0.15625 0.3125 0.14844 0.83984 0.14844 0.83984 0.82812 0.43359 2.2773 1.5273 2.2656 3.2695 0 0.125-0.003906 0.24609-0.007812 0.37109-0.058594 2.3438-0.51562 4.6758-1.1992 6.9219 1.5977 0.66406 3.1484 1.3008 4.5312 2.0156 3.0078 1.5586 5.9062 3.5234 7.9922 6.2188 0.34766 0.44922 0.52734 0.97266 0.61719 1.5312 0.097656-0.31641 0.19922-0.62891 0.30859-0.94531 0.12109-0.35156 1.0664-2.9492 2.6211-2.5703 1.3516 0.33203 1.3594 2.5195 1.1055 4.3867-0.44141 3.2695-2.1914 6.25-3.9492 9.125-0.039062 0.80859-0.10156 1.6172-0.19922 2.4219-0.38281 3.125-1.125 6.1914-1.8398 9.2617-0.23047 1.25-0.48438 2.4922-0.77734 3.7266 0.55078 2.9609 0.76172 5.9688 1.0703 8.9805 0.16797 1.5742 0.34375 3.2188-0.046875 4.7148-0.21875 0.82422-0.80078 1.4766-1.75 1.7578-1.4062 0.41406-2.8828 0.32422-4.3555 0.066406-0.46094 0.40625-0.90234 0.83203-1.2969 1.3086-0.48438 0.58203-0.98438 1.1484-1.5 1.7031-0.011719 1.8984-0.082031 3.7969-0.39062 5.6289-0.046875 0.27344-0.039063 0.42188-0.32031 0.77344 0 0-0.19922 0.20703-0.38672 0.30859-0.78125 0.41406-1.7188 0.24219-2.6953 0.17578-1.6914-0.11719-3.375-0.32422-5.0586-0.53906 0 0-0.25391 0.054687-0.50781 0.17969-2.0781 0.98438-4.2578 1.8203-6.4883 2.4023-0.83203 0.71484-1.8242 1.2461-2.9609 1.5-2.0547 0.46484-4.2461 0.26172-6.2734 0.22266-6.0039-0.14844-11.715-3.1797-16.156-7.1328 0 0-0.77734-0.24609-1.5586-0.50391-0.14844 0.089843-0.29688 0.17969-0.4375 0.26562-2.4375 1.4375-5.1641 2.1719-8.1367 2.5234-0.48047 0.054688-0.96875 0.078125-1.4453 0.14844-0.14844 0.023437-0.20703 0.027343-0.20703 0.027343-0.16797 0.019531-0.33594 0.035157-0.50781 0.039063-0.12109 0.003906-0.23828 0.003906-0.32031-0.007813l-0.47656-0.16406-0.35938-0.33594-0.19141-0.45312 0.007812-0.49219 0.20703-0.44922 0.375-0.32422 0.37891-0.13281c2.3359-0.39062 4.7852-1.1289 7.2891-2.0352-1.4766-0.58203-2.9336-1.2188-4.3555-1.9062 0 0-3.1836 0.23047-5.2617-0.12109-1.6367-0.27734-3.2539-1.0195-4.2383-2.3242 0 0-1.8047-0.53125-3.3281-1.0234-1.0859-0.34766-2.168-0.72266-3.2422-1.1055-1.6797-0.59766-3.3125-1.2617-5.0391-1.8086-1.0117-0.32031-2.4648-0.67188-2.2148-2.0156 0.23438-1.2656 2.1562-1.6328 3.7109-2.0547l0.023438-0.007813c-0.09375-6.7461-2.8125-13.109-3.4375-19.691-0.14453-1.5312-0.13281-3.0664-0.21875-4.6094-0.039063-0.73438-0.0625-1.5469 0.4375-2.0234 0.25781-0.24609 0.33984-0.23828 0.47656-0.28906 0.58203-0.21094 1.2734-0.019532 1.6797 0.46094 0.43359 0.50781 0.49609 1.2305 0.69922 1.8281 1.4922 4.2656 2.8281 8.5859 4.8945 12.594 0 0 0.16406-0.59766 0.28125-1.0273 0.26172-0.92969 0.64844-1.8242 1.1094-2.6914-0.007813-0.4375 0.011719-0.87891 0.011719-1.3164 0-0.16797 0.011718-0.33203 0.042968-0.49609 0.074219-0.39453 0.25-0.76562 0.42188-1.1289 0 0 0.14062 0.019531-0.0625-0.25-2.0742-2.7852-2.8789-6.4141-2.1484-9.9766 0.69531-3.3984 2.5273-6.418 4.75-9.0547-0.14453-2.1523-0.41406-4.3125 0.51172-6.293 0.91016-1.9453 3.9922-1.6016 6.3047-0.19922l0.035156 0.019532c2.1172-1.6172 4.3828-3.0234 6.8008-4.1406 0 0 0.074218 0.20703 0.015624-0.32812-0.15234-1.457 0.26953-2.9844 1.1328-4.1055 1.2109-1.5625 3.0078-2.4336 4.8945-2.9727 0.49609-0.59766 1.2891-0.98438 2.5508-1.0156 0.56641-0.015625 1.1211 0.0625 1.668 0.20703zm17.762 70.977c-1.0586 0.074218-2.1211 0.074218-3.1836 0.03125 0 0-0.54297 0.57812-1.1445 0.79688-1.7109 0.625-3.7383 0.30078-5.1914 0.32422-2.1328 0.03125-4.2734-0.027344-6.3906-0.28516l-0.058593-0.007812c3.25 2.0859 7.0234 3.3789 10.832 3.6445 0.011719-0.28906 0.11719-0.58203 0.32812-0.80469 0 0 1.2266-0.78906 2.1523-1.3047 0.875-0.48828 1.7734-0.92578 2.6797-1.3477 0 0-0.17969-0.57031-0.023437-1.0508zm3.8438 1.8438c-1.1016 0.53125-2.207 1.0664-3.3164 1.5898l-0.050781 0.023437c0.89844-0.14844 1.7852-0.33984 2.668-0.56641 0.039062-0.046875 0.082031-0.097657 0.12109-0.15234 0.21484-0.28125 0.41016-0.58203 0.57812-0.89453zm12.367-4.4648c-0.25781 0.15625-0.51172 0.30859-0.77344 0.45703 0 0-0.35156 0.85938-0.73828 1.4453-0.28906 0.4375-0.62109 0.84375-0.97656 1.2266l-0.023437 0.027344c1.1914 0.13281 2.3867 0.26562 3.582 0.29688h0.023437c0.074219-0.82031 0.12109-1.6406 0.16016-2.4609-0.09375 0.011718-0.19141 0.003906-0.28516-0.023438-0.44141-0.12109-0.81641-0.46484-0.94922-0.88281 0 0-0.003907-0.03125-0.011719-0.085938zm-11.527 1.4492c0.011719-0.21875 0.011719-0.4375 0.003907-0.65625-0.023438 0.015625-0.042969 0.03125-0.066407 0.046875-0.625 0.45312-1.2656 0.89062-1.9609 1.2109 0.25-0.011719 0.5-0.023437 0.75-0.027343 0 0 0.63281-0.28125 1.2695-0.57031zm-0.29297-3.2539c-0.76562 0.125-1.5391 0.22266-2.3125 0.3125-4.9531 0.58594-10.023 0.16797-14.797-1.4219 0 0-1.0547 0.55469-2.207 1.1172 2.2539 0.29688 4.5156 0.54297 6.7578 0.82812 0.60547 0.082031 0.67578 0.12109 0.92188 0.17578 1.0898 0.23047 2.1914 0.45312 3.1719 1.0234l0.003906 0.003906c1.6875 0.10547 3.3906 0.14062 5.0625-0.09375 1.0898-0.16016 1.9609-1.0781 2.9102-1.6875 0 0 0.19531-0.125 0.48438-0.25781zm2.9062-0.23828c-0.1875 0.75391-0.16406 1.5469 0 2.3008 0 0 2.2109-0.90234 4.0469-1.625l0.11719-0.046874c-1.3242-0.37109-2.7148-0.51953-4.0938-0.63281 0 0-0.0625-0.019531-0.066406 0.003906zm6.5586-3.582c-0.49609 0.12109-0.99219 0.23047-1.4922 0.32422 0 0-0.85156 0.64062-1.8086 1.2617 0.18359 0.03125 0.36328 0.066406 0.53516 0.10156 1.1641 0.23828 2.3477 0.56641 3.2773 1.2656 0 0 1.0547-0.44922 1.9336-0.58984 0.39453-0.0625 0.80469-0.078125 1.1953 0.015625 0.027344-0.023437 0.054688-0.046875 0.082032-0.074218 0.003906-0.62891 0-1.2617-0.019532-1.8906l-0.003906-0.046874c-1.2148-0.21875-2.4531-0.31641-3.6992-0.36719zm-35.156-1.9727c-0.39063 1.3711-1.7734 2.6016-2.9062 3.4727 0.13281 0.16016 0.30469 0.36328 0.30469 0.36328 1.0234 0.51172 2.082 0.80469 3.2266 1.043 0.90625-0.81641 1.7617-1.6875 2.5742-2.5977-1.1523-0.65625-2.2148-1.418-3.1953-2.2852zm5.2695 3.5195-0.28125 0.31641c0.27344-0.13281 0.64062-0.3125 0.64062-0.3125-0.13281-0.058593-0.18359-0.20703-0.36328-0.003906zm-21.836-6.043c1.5703 2.7852 4.3359 4.7656 7.1016 6.2031l0.027344 0.015625c0.45312-0.066406 0.89844-0.16016 1.3438-0.27344l0.050781-0.011719c-0.058594-0.042969-0.11328-0.085938-0.17188-0.12891-1.9375-1.4883-3.4023-3.5703-4.6289-5.6914l-0.011719-0.023438c-1.2422-0.046875-2.4844-0.10938-3.7227-0.12109 0 0 0.007813 0.019532 0.015626 0.035156zm30.398 4.9883c-0.45312-0.070313-0.90625-0.14844-1.3594-0.23438 0 0-0.027344-0.019531-0.082032 0.019532-0.45703 0.32031-1.1133 0.75781-1.1133 0.75781 0.69922 0.18359 1.4102 0.33594 2.1211 0.46094 0-0.25391 0.078125-0.52344 0.25781-0.78125 0.054687-0.078125 0.11328-0.15234 0.17578-0.22266zm13.277 0.55469c-0.078124 0.003906-0.15625 0.007813-0.23437 0.011719-0.09375 0.003906-0.18359 0.007812-0.27734 0.015625 0.12891 0.003906 0.25781 0.011719 0.38672 0.015625 0 0 0.035157 0.042968 0.125-0.042969zm-44.68-2.6875c-0.023437 0.46484-0.019531 0.92578 0.015625 1.3906l0.003906 0.035156c0.58594 0.16406 1.1719 0.32422 1.7578 0.48438 0 0-0.62891-0.62109-1.0938-1.1523-0.35156-0.40234-0.66797-0.96875-0.67969-0.75781zm24.812 0.91797-0.24609 0.28516c0.42578 0.18359 0.85547 0.35938 1.2891 0.52344l0.03125 0.011718c0.38281-0.22656 0.92188-0.57031 0.92188-0.57031-0.125-0.035156-0.25391-0.066406-0.38281-0.10156-0.42969-0.12109-0.91406-0.17188-1.3711-0.24609 0 0-0.066406-0.10547-0.24609 0.10156zm-14.371-3.3594c0.89453 1.2578 1.8008 2.5039 2.7422 3.7266 0.90234-0.6875 2.0938-1.3359 2.125-2.3125 0-0.019531 0-0.039062-0.003907-0.058593-0.058593-0.46875-1.4141-0.64453-2.2188-0.86719-0.87109-0.24219-1.7578-0.39844-2.6562-0.51172 0 0-0.023437-0.023437 0.007813 0.019531zm55.113 0.42578c-0.11328 0.75391-0.33594 1.4727-0.78906 2.1133-0.21484 0.30469-0.45312 0.58594-0.70312 0.85156 0.14453-0.003906 0.28516-0.011719 0.42969-0.019532 0.37891-0.027343 0.92969-0.17578 0.92969-0.17578 0.25781-0.85938 0.22656-1.8164 0.13281-2.7695zm-69.965-0.88672c-2.293-0.011719-4.5742 0.035157-6.7305 0.60938 2.8789 1.0664 5.7578 2.1133 8.6914 2.9961 0 0 0.054688 0.32031 0.0625-0.32812 0.011719-0.65625 0.074219-1.3125 0.17969-1.9609-0.54297 0.046874-1.1055-0.089844-1.6602-0.50391-0.28906-0.21094-0.45703-0.49609-0.53906-0.81641zm67.734-2.0117c-1.3516 1.7344-3.0273 3.2188-4.918 4.3359 0.10156 0.17969 0.17969 0.38281 0.22656 0.60938l0.003906 0.019531c0.75391 0.17188 1.5156 0.36328 2.2734 0.52734 0.125-0.10547 0.25391-0.20703 0.37891-0.3125 0.89844-0.75 1.8867-1.5625 2.0039-2.7695 0.078125-0.79688 0.027344-1.6016 0.03125-2.4062zm-12.613 3.5781c0-0.20313-0.078124-0.42188-0.28516-0.63281-0.30859-0.3125-0.69141-0.54688-1.0859-0.75391 0 0-0.007813-0.007813-0.019531 0-1.4844 0.86328-3.0859 1.4883-4.75 1.9609 1.5-0.066406 3.0078-0.082031 4.5078-0.058594 0 0 0.65625-0.24219 1.2031-0.40234 0.14062-0.039063 0.28125-0.078125 0.42188-0.11328zm-20.363-4.3828c-1.1914 1.457-2.3906 2.9062-3.5977 4.3516l-0.007813 0.007812c1.1953 0.10547 2.3945 0.10156 3.5898 0.050781 1.5312-1.1914 2.9805-2.5039 4.25-3.9727l0.078125-0.089844c-1.375-0.14844-2.75-0.30859-4.125-0.48438 0 0-0.11719 0.046875-0.1875 0.13281zm7.043 0.73047c-0.91016 1.2227-1.9492 2.3438-3.0586 3.3867 3.9883-0.36328 8.0391-0.69531 11.723-2.1641 0 0-1.1055 0.03125-1.6406 0.007812-0.70703-0.03125-1.4375-0.19922-1.9961-0.62891l-0.007813-0.003906c-1.6094-0.25-3.2227-0.45703-4.8398-0.64844 0 0-0.10547-0.042968-0.17969 0.054688zm25.387-11.812c-0.73047 1.0547-1.5039 2.0781-2.3359 3.0508-1.4766 1.7266-3.2305 3.1914-4.832 4.7734-0.92969 0.91016-2.0469 1.6328-3.1133 2.3984-0.042969 0.87109-0.42188 1.6953-1.043 2.3281 0 0-0.10156-0.03125 0.17188 0.17969 0.74609 0.58984 1.3164 1.418 1.4531 2.3203 0.82422-0.082031 1.6641-0.10938 2.5117-0.085937 2.8984-1.332 5.3945-3.457 6.9883-6.3555 0.60156-1.0898 1.1562-2.1406 1.5039-3.4492 0.035156-0.13281 0.070313-0.26562 0.10547-0.40234 0.035156-0.17188 0.066406-0.34375 0.10156-0.51562-0.13672-0.62891-0.29297-1.2578-0.47656-1.875-0.19141-0.63672-0.375-1.3281-0.80469-1.7617 0 0-0.14844-0.26562-0.22266-0.60937zm-46.402 8.1406c0.82031 1.5586 1.793 3.0586 3.0664 4.2773l0.03125 0.03125c1.4727 0.87109 3.0352 1.5859 4.6367 2.1836l0.16797 0.0625c1.1445-1.3555 2.2734-2.7188 3.3984-4.0898l0.035156-0.042968c-3.8359-0.57422-7.6562-1.3359-11.34-2.4648 0 0-0.058594-0.070312 0 0.042969zm-2.1328 4.5938c-0.35156-0.49609-0.6875-1.0117-1.0117-1.543 0 0-0.81641-0.60938-1.5117-1.0977-1.8516-1.3086-3.6328-2.7188-5.2578-4.3125 0 0-0.45312 0.8125-0.89844 1.5625 1.0703 1.3672 2.0625 2.7969 3.0195 4.2539l0.14062 0.21875c0.13281 0.007812 0.26953 0.015625 0.40234 0.023438 1.7383 0.12109 3.4531 0.41016 5.1172 0.89453zm-17.074-3.4258c-0.25391-2.375-0.078125-4.7969 0.26562-7.1523 0 0-0.042969-0.51172-0.13672-0.16797-0.074219 0.27734-0.14453 0.55469-0.21875 0.83203-0.28906 1.0664-0.61719 2.2383-1.4844 2.8633-0.69922 0.50391-1.7109 0.17969-2.4766-0.41016-1.2812 1.8281-2.4336 3.6719-2.4805 6.1641-0.003906 0.13281-0.16406 0.34766 0.16016 0.30859 1.2578-0.14844 2.5312-0.19141 3.8047-0.19141h1.3516c0.011719-0.027343 0.023438-0.054687 0.035156-0.082031 0.31641-0.75781 0.75-1.4609 1.1836-2.1602zm5.9844 1.6289c-0.16797 0.21875-0.33984 0.43359-0.51562 0.64062 0.21875 0.007812 0.43359 0.015625 0.64844 0.023437l0.17188 0.007813c-0.039062-0.082031-0.078125-0.16406-0.11328-0.25-0.0625-0.14062-0.125-0.28125-0.1875-0.42578zm41.535-7.9883c-0.55859 2.2227-0.85547 4.4688-0.90234 6.793-0.003906 0.19922 0.007813 0.49219 0.007813 0.49219 0.78906 0.12891 1.5781 0.26172 2.3594 0.41016 0.24219-0.019531 0.31641-0.035156 0.46875-0.0625 1.1836-0.21875 2.2773-0.81641 3.3047-1.4688-0.98047-2.5586-3.3047-4.4258-5.1367-6.0703-0.035157-0.03125-0.089844-0.13281-0.10156-0.089843zm-2.332-2.0547c-0.16797 0.20703-0.36719 0.39062-0.58203 0.55078-0.57812 2.8047-1.5039 5.5742-2.9102 8.0859 0.80469 0.10156 1.6094 0.20312 2.4102 0.31641 0 0 0.13281 0.19922 0.14063-0.16016 0.066406-2.8672 0.46875-5.7148 1.2891-8.457 0 0-0.28906-0.41406-0.34766-0.33984zm-3.2539 1.5742c-0.59766 0.12109-1.2031 0.20312-1.8047 0.28516l-0.089844 0.011719c-1.3086 1.5547-2.6016 3.125-3.8906 4.6953 0.13672 0.27734 0.12891 0.23047 0.19531 0.35547 0.17969 0.34375 0.25781 0.73047 0.16016 1.1172l-0.003906 0.007812c0.78516 0.089844 1.5703 0.17188 2.3555 0.26172l0.25781 0.027343c1.2969-2.0664 2.1914-4.3516 2.8086-6.7227 0.003906-0.011718 0.023437-0.042968 0.011719-0.039062zm17.289-30.691c0.007812 0.70703-0.023438 1.4805-0.13672 2.1836 0 0 1.2891 1.4219 2.25 2.6133 2.6328 3.2617 4.7148 7.0742 4.7578 11.387 0.015625 2.5156-0.11719 5.2773-2.4531 6.8359-2.1602 1.4414-5.0234 1.3984-7.5898 1.2891-1.7891-0.078125-3.5703-0.25781-5.3398-0.55469l-0.089843-0.015625c-0.88281 1.5664-1.6719 3.1953-2.3008 4.8828l-0.027344 0.070313c2.5312 2.1953 5.0625 4.3906 6.4492 7.2539 1.707-1.2617 3.2539-2.7383 4.7656-4.1758 4.4375-4.2266 7.2852-9.9766 10.492-15.215l0.03125-0.13281c0.023437-0.51953 0.03125-1.0352 0.027344-1.5547-0.015626-1.9102-0.085938-3.8164-0.078126-5.7266 0.007813-0.69141 0.21094-1.4414-0.19922-1.9766-2.6484-3.3984-6.7383-5.4453-10.555-7.1602zm-38.793 34.219c2.1758 0.64062 4.3984 1.1562 6.6289 1.582l0.042968 0.007812c-2.2344-0.57031-4.4766-1.0977-6.7227-1.6133 0 0-0.28906-0.082031 0.046875 0.019531zm-2.2344-8.7539c-0.36328 1.8594-0.21875 3.8125-0.19141 5.7148v0.066406c4.6719 0.98828 9.332 2.082 13.867 3.418 0.44531 0.13281 0.62109 0.21875 0.93359 0.34375l0.007813 0.003906c-1.0391-1.3633-2.1641-2.6562-3.3125-3.9297 0 0-1.1406-0.22266-2.207-0.48047-3.4453-0.83594-6.707-2.6016-9.0859-5.1641-0.003906 0.011718-0.003906 0.019531-0.007813 0.03125zm-5.6602 8.3086c0.48828 0.41797 0.98438 0.82031 1.4922 1.2148l-0.11328-0.60547c-0.10547-0.046875-0.21094-0.09375-0.32031-0.14062-0.36719-0.16406-0.73047-0.32812-1.0938-0.49609 0.011718 0.007813 0.019531 0.019531 0.03125 0.027344zm-9.5703-0.51953c-0.19531-0.17578-0.39844-0.35938-0.58594-0.53125 0 0-0.007812 0.019531-0.007812 0.03125-0.039063 0.46875-0.070313 0.9375-0.089844 1.4102 0.22656-0.30469 0.45312-0.60938 0.68359-0.91016zm-12.801-11.371c0.54297 4.0859 1.7656 8.082 2.5586 12.129 0 0 0.51562-0.77734 0.93359-1.3828 0.24609-0.35547 0.49609-0.70703 0.74219-1.0625 0 0-0.42578-0.85938-0.75-1.4961-1.3672-2.6797-2.5039-5.4492-3.4961-8.2773 0 0 0.007812 0.054688 0.011718 0.089844zm46.48 9.3438c-1.2539 0.058594-2.5078 0.089844-3.7617 0.058594 0 0 0.6875 0.85938 1.2812 1.6016 0.24219 0.30469 0.58984 0.75781 0.58984 0.75781 0.61719-0.75 1.2344-1.5039 1.8555-2.25 0 0 0.29688-0.17969 0.039062-0.16797zm-29.281 0.625c-0.14844 0.55469-0.32031 1.1016-0.51172 1.6406 0.23047-0.41016 0.45312-0.82422 0.67188-1.2383 0 0 0.13281 0.011718-0.054687-0.21484-0.046875-0.054688-0.074219-0.12891-0.10547-0.1875zm-9.7031-1.5859c-0.125 0.39844-0.26953 0.79688-0.44141 1.1758 0.089844 0.097656 0.070312 0.003906 0.085937-0.035156 0.15234-0.375 0.25781-0.76563 0.35938-1.1562 0 0 0.027344-0.089844-0.007812 0.011718zm16.18-5.8047c-0.13281 0.17578-0.33594 0.42578-0.33594 0.42578-0.070312 0.16406-0.13672 0.32812-0.20703 0.49609-0.63672 1.5039-1.2969 3.0039-1.9805 4.4961l-0.066406 0.14844c0.69141 0.10938 1.3867 0.21484 2.0781 0.32422l0.074219 0.011719c-0.082032-1.9883 0.089843-3.9844 0.46875-5.9258 0 0 0.042968-0.074219-0.03125 0.023437zm13.031-8.2656c-1.8086 0.32812-3.6016 0.77734-5.3086 1.4609-0.15625 0.37109-0.34766 0.79687-0.34766 0.79687 3.0898 3.3438 6.1484 6.7891 9.2148 10.129l0.16406 0.17969c2.7188 0.29688 5.5195 0.20312 8.2031-0.027344l0.042969-0.003906c0.89844-1.0586 1.8008-2.1172 2.7031-3.1719l0.03125-0.039062c-2.2148-2.2461-4.375-4.5312-6.5039-6.8516l-0.027344-0.027344c-2.5938-0.94922-5.2188-1.8281-7.9141-2.4375 0 0-0.125-0.035156-0.26562-0.011718zm-6.9102 4.8984c-0.26562 0.54687-0.52734 1.0977-0.78125 1.6523l-0.027343 0.058594c1.6289 2.582 4.6094 4.2109 7.4453 5.1289 0 0-0.59375-0.66016-1.1602-1.2891-1.0469-1.1602-2.0898-2.3242-3.1367-3.4883-0.66797-0.74219-1.3398-1.4844-2.0156-2.2227l-0.16406-0.17969c-0.054688 0.10938-0.10547 0.22266-0.16016 0.33203zm48.098 6.7695c0.25781-1.5273 0.48828-3.0586 0.73828-4.582 0 0 0.042969-0.14844 0.007812-0.09375-0.73828 1.2305-1.4844 2.4609-2.2695 3.6641 0.4375-0.03125 0.91406 0.18359 1.2539 0.625 0.097656 0.125 0.1875 0.25391 0.26953 0.38281zm-60.184-0.50781c0.25391-0.25391 0.57422-0.57422 0.85156-0.85938 0.59766-0.60156 1.1992-1.1953 1.7812-1.8086 0 0 0.007813-0.48438 0.10156-0.76172 0.21484-0.63281 0.80469-1.0703 1.2852-1.5195 0 0 0.21875-0.39844 0.33984-0.70313 0.75781-1.9219 1.4727-3.8672 2.168-5.8164 0 0 0.10937-0.16797 0.023437-0.16406-2.1836 0.039062-4.3086 0.65625-6.4141 1.3359-0.039062 0.054688-0.078124 0.10938-0.11719 0.16406-0.60156 0.86719-1.0781 1.8164-1.3984 2.8047 0.42578 0.48438 0.69922 1.2266 0.82812 2.0078 0.28516 1.75 0.52344 3.5391 0.54688 5.3203zm38.965-4.3945c-0.50391 0.60938-1.0117 1.2148-1.5195 1.8203-0.039062 0.41406 0.11719 0.51562 0.17969 0.74609 0.066406 0.23438 0.11719 0.47266 0.16016 0.71094 0.32031 0.3125 0.75391 0.73438 0.75391 0.73438 0.51562-1.2695 1.1133-2.5156 1.7656-3.7266 0 0-0.63281-0.17578-1.2266-0.34375 0 0 0.003906-0.082031-0.11328 0.0625zm-42.891-2.9336c0.14063-0.51953 0.32031-1.0312 0.52734-1.5273 0 0 0.10156-0.089844-0.050781-0.011719-0.14844 0.074219-0.29688 0.15234-0.44531 0.23438-0.48047 0.65625-0.94922 1.3164-1.3828 1.9961-0.20703 0.32812-0.35156 0.82812-0.50781 1.2852-0.13672 0.39844-0.25781 0.80469-0.35547 1.2188 0.11328 0.125 0.23047 0.25 0.34766 0.375 0.20703-0.52344 0.42188-1.0625 0.58203-1.4297 0.31641-0.74609 0.70703-1.5938 1.2773-2.1367zm54.422-14.98c-0.35156 1.0625-0.78125 2.0977-1.2656 3.1055 0 0 0.089844 1.293 0.058594 2.418-0.097656 3.9531-3.0273 7.4648-5.2344 10.961l-0.007812 0.011718c2.1992 0.32422 4.4297 0.46875 6.6445 0.45703 1.5-0.011719 3.0938-0.20313 4.2344-1.332 1.1211-1.1055 0.95703-3.082 0.91016-4.7422-0.12891-4.0781-2.5898-7.7891-5.2617-10.875 0 0-0.035156-0.14844-0.082031-0.003907zm-4.1133 8.0391c-1.7617 2.6914-3.6914 5.2656-5.7031 7.7734l0.87109 0.22266c0.13281-0.21875 0.26562-0.43359 0.39844-0.64844 1.5312-2.4453 3.3984-4.6641 4.4688-7.3984-0.011718 0.015625-0.023437 0.035156-0.035156 0.050781zm0.30469-6.0938c-1.7695 2.6094-3.7031 5.2656-6.5898 6.4258-0.77734 0.3125-1.5781 0.56641-2.3906 0.77734 0.003906 0.32031 0.011719 0.63672 0.015625 0.95703 0.019531 1.5977 0.023438 3.1914-0.011719 4.7891l0.49219 0.21094c3.1797-3.9141 6.293-7.918 8.5898-12.41-0.003906-0.070313-0.011718-0.14062-0.019531-0.21484-0.027343-0.26172-0.042969-0.59766-0.085937-0.53516zm-54.477-0.35938c-0.34375 0.53125-0.66406 1.0742-0.96094 1.625-1.9141 3.543-2.5273 8.0508-0.23047 11.508 0 0 0.32031-0.34766 0.6875-0.71484 0.35156-4.125 0.47656-8.2695 0.50781-12.418zm43.121 8.0508c-1.8164 0.28906-3.6602 0.41797-5.4961 0.53516l-0.28516 0.019531c0.80078 0.89844 1.6055 1.793 2.418 2.6758 1.1172 0.42578 2.2383 0.84766 3.3594 1.2539l0.023437 0.007813c0.023438-1.4961 0.011719-2.9922-0.007812-4.4844 0 0 0.011718-0.007813-0.011719-0.007813zm-36.227-15.523c-1.6445 1.3242-3.1758 2.7734-4.5273 4.332 0.007812 0.17969 0.011719 0.35938 0.015625 0.53516 0.011718 4.2617-0.066406 8.4922-0.33984 12.719 0.85156-1.2305 1.8477-2.3711 2.8086-3.4766 0.16797-0.19141-0.0625-0.066407 0.45703-0.375 0.25391-0.089844 0.25391-0.089844 0.51953-0.12109 0 0 0.21875 0.011719 0.35547 0.054687 0.30859 0.097657 0.35547 0.1875 0.58203 0.40234 0 0 0.10938 0.15625 0.16016 0.26953 0.14063 0.33594 0.15234 0.41797 0.007813 0.89844 0 0-0.074219 0.11328-0.19141 0.29297 0.21094-0.24219 0.49609-0.56641 0.75781-0.85547 1.3242-1.4453 2.8242-2.7227 4.3945-3.8945 0 0-0.33984-0.69922-0.59375-1.4766-0.64062 0.48438-1.6484 1.0391-2.3398-0.11719 0 0-0.32422-1.1797-0.19141-2.043 0.20313-1.3359 0.91797-2.5273 1.5312-3.7383 0.13672-0.26953 0.28906-0.53906 0.44141-0.80469-1.2891-0.85156-2.5508-1.75-3.8477-2.5977zm18.07 8.332c-0.21484 0.28516-0.42578 0.56641-0.64062 0.85547-0.14062 0.19141-0.34766 0.46875-0.35156 0.48438-0.13281 0.34766-0.66016 1.6484-1.0391 2.5391 0 0-0.027344 0.9375-0.14062 1.7969 0 0 0.90234 0.058594 1.6367 0.14844 0.84375 0.10547 1.6797 0.26172 2.5078 0.43359 0 0 0.98828-0.14844 1.8516-0.25391 0.44922-0.054687 0.89453-0.10547 1.3438-0.14844l0.066406-0.007813c-1.6406-1.8516-3.2656-3.7188-4.8867-5.5859l-0.28906-0.33594c-0.019531 0.023438-0.039063 0.050782-0.054688 0.074219zm-11.852 4.5c-0.71875 0.54297-1.418 1.1133-2.0898 1.707 0 0 0.90625-0.17969 1.6484-0.25781 0.43359-0.046875 0.86719-0.074219 1.2969-0.085938 0 0-0.50781-0.83984-0.82422-1.3477 0 0-0.003906-0.039062-0.03125-0.015625zm6.1172-3.1055c-0.45703 1.332-0.90234 2.668-1.3555 4l-0.125 0.36328 0.48828-0.019532c0.66016-1.1328 1.3633-2.2461 2.0938-3.3398 0 0-0.16406-0.33984-0.33984-0.52344-0.21484-0.22266-0.46875-0.40234-0.73438-0.5625-0.007813 0.027344-0.019532 0.050781-0.027344 0.078125zm11.035-7.1836c-0.69531 1.3555-1.0078 2.9023-0.33984 4.3359 1.1641 2.5039 3.2695 4.5117 5.1055 6.5898l0.30859 0.34766c2.5469-0.14453 5.0977-0.25 7.6211-0.66797l0.13281-0.023437c-0.046875-2.6133-0.039062-5.2383-0.042969-7.832v-0.10547c-4.3086-0.64453-8.5547-1.582-12.777-2.6523 0 0.003906-0.003907 0.003906-0.003907 0.007812zm15.156 3.0352c0.003906 2.2539-0.007812 4.5039 0.03125 6.75l0.003906 0.26172c0.54688-0.16016 1.0859-0.34375 1.6094-0.55859 2.6211-1.0703 4.293-3.7578 5.7461-5.9844l0.039063-0.058594c-1.3945-0.39844-2.9102-0.17578-4.4648-0.25-0.97266-0.046875-1.9414-0.12109-2.9102-0.22656 0 0-0.054688-0.074218-0.054688 0.0625zm-29.047 5.0312c-0.43359 0.25781-0.86328 0.52734-1.2812 0.8125 0 0 0.33594 0.59375 0.63672 1.0938l0.035156 0.058593c0.22656-0.66016 0.44922-1.3164 0.67188-1.9766 0 0 0.089844-0.074219-0.058593 0.011719zm-2.8672-2.2148c0.097656 0.33594 0.23047 0.66406 0.37891 0.98047 0.48828-0.32812 0.98438-0.63672 1.4922-0.92578l-0.42188-0.054687h-1.4492zm8.4258-0.21094c-0.26172 0.10547-0.66016-0.074219-0.16016 0.45703 0 0 0.31641-0.52344 0.16016-0.45703zm5.1797-2.5938c-0.25391 0.31641-0.60937 0.76172-0.60937 0.76172 0.32422 0.37109 0.64453 0.74609 0.96875 1.1172l0.24219 0.27734c-0.027344-0.058594-0.050781-0.11328-0.074219-0.17188-0.27344-0.63672-0.43359-1.3203-0.47266-2.0117 0 0 0.054688-0.10938-0.054688 0.03125zm-13.645-1.3203c-0.003906 0.57812 0.019531 1.1562 0.023438 1.7344l1.5586 0.019531c0.94531 0.078125 1.8789 0.25391 2.793 0.50781 0 0 0.28906-0.72266 0.62891-1.5156-0.14453 0.082031-0.30078 0.15625-0.46875 0.21094-1.5898 0.54688-3.2305-0.22266-4.5391-0.96094zm7.9688 0.007813c-0.3125 0.61719-0.59766 1.2422-0.86719 1.8789 0.058594-0.019532 0.11719-0.039063 0.17578-0.058594 0.5625-0.19531 1-0.39062 1.625-0.68359 0.0625-0.027344 0.13281-0.058594 0.13281-0.058594l-0.49219-0.57031-0.52734-0.60938c-0.015625 0.035156-0.035156 0.066406-0.050781 0.10156zm2.2344-3.4727c-0.32031 0.39453-0.625 0.80078-0.91016 1.2188 0.34766 0.40234 0.69922 0.80859 1.0469 1.2109l1.1172 1.293c0.73828-0.92578 1.4883-1.8438 2.2422-2.7578l0.027344-0.035156c-0.96875-0.26172-1.9375-0.52734-2.9062-0.79688l-0.32812-0.09375s-0.22266-0.12109-0.29297-0.039063zm24.574-3.9492c-0.39844 0.21484-0.87109 0.40625-1.3867 0.49219-0.5625 0.09375-1.1328 0.125-1.7031 0.10938 0.14844 1.832 0.21875 3.668 0.25 5.5078l0.003907 0.16016c1.8477 0.22266 3.6992 0.29688 5.5781 0.30859 1.0586 0.011718 2.1328 0.085937 3.1133 0.48437 0.28125-0.51172 0.55078-1.0312 0.80859-1.5586l0.027343-0.054688c-1.7266-1.6484-3.5234-3.1953-5.4375-4.6523-0.39453-0.29688-0.81641-0.55859-1.25-0.79688zm-30.039 3.4375c-0.43359-0.53906-0.85937-1.0859-1.2812-1.6367l-0.003906-0.003906c-0.39844-0.12109-0.79688-0.23438-1.1992-0.34766 0 0-0.039063-0.023437-0.066407 0.015625-0.23828 0.32031-0.55859 0.80469-0.55859 0.80469-0.027344 0.066406-0.054688 0.13281-0.085938 0.19922-0.36328 0.82813-0.76172 1.6406-1.1758 2.4492 0.41016 0.23438 0.82812 0.45312 1.2578 0.66016 0.67969 0.32812 1.457 0.80859 2.1445 0.55469 0.65625-0.24219 0.84766-1.625 0.96875-2.6914zm17.93-5.6094c-0.55859 0.66797-1.1172 1.3398-1.6719 2.0117l0.03125 0.007813c0.38281 0.25391 0.38672 0.25781 0.64453 0.64062l0.09375 0.45312c-0.078125 0.39453-0.042968 0.53906-0.34375 0.83984-0.10938 0.10938-0.25391 0.17188-0.38281 0.25781l-0.45312 0.09375c-0.94141 0.003906-1.6836 0.78906-2.3086 1.4648l-0.011719 0.011719c3.6758 0.91797 7.3828 1.7109 11.133 2.3008l0.16406 0.027343c-0.03125-1.8828-0.10938-3.7695-0.27734-5.6406-0.73438-0.15625-1.4609-0.35938-2.1602-0.57422-1.543-0.47266-3.0234-1.1289-4.457-1.8906zm-31.312 4.0586c-0.85938-0.44922-1.3477-0.55469-2.0625-0.48047-0.21094 0.023438-0.20703 0.17969-0.25391 0.3125-0.30469 0.83203-0.37109 1.7266-0.34375 2.6445 0.09375-0.09375 0.19141-0.19141 0.28516-0.28125 0.76953-0.75391 1.5625-1.4883 2.3789-2.1914zm6.9375 1.7422c0.0625-0.17188 0.089844-0.22656 0.14453-0.36328 0.12109-0.28906 0.25-0.57422 0.38672-0.85156 0.20703-0.41797 0.4375-0.82422 0.67969-1.2188 0 0 0.36328-0.09375-0.32031-0.17188-0.56641-0.0625-1.0469-0.43359-1.1523-1.0898-0.015625 0.007813-0.03125 0.019532-0.046875 0.027344-0.87109 0.53125-1.7305 1.0938-2.5703 1.6875 0.96094 0.66016 1.9102 1.3359 2.8789 1.9805zm9.3281-0.41406s0.003906 0.19531 0.14844 0c0 0-0.38672-0.28516-0.14844 0zm33.703-1.1133c0.36719 0.32422 0.73438 0.65625 1.0938 0.98828l0.058594 0.054688c0.0625-0.15234 0.12109-0.30469 0.17969-0.46094-0.44531-0.19141-0.89062-0.38281-1.332-0.58203zm-22.297-3.6406c-2.4453 0.84766-4.8867 1.8867-6.8711 3.5039l-0.027343 0.019532c1.0859 0.30078 2.168 0.59375 3.2578 0.88281l0.011719 0.003906c1.2188-1.4648 2.4297-2.9297 3.6445-4.3945 0 0 0.074219-0.046875-0.015625-0.015625zm-0.74609-3.2422c-2.1562-0.14062-4.3203-0.15625-6.5234-0.17578h-0.26172c-0.48047 0.003907-0.96094 0.019531-1.4375 0.066407h-0.019531c-0.87109 0.48828-1.7266 1.0039-2.5547 1.5586-0.03125 1.3008-0.050781 2.6016-0.11328 3.8945 0.67969 0.22266 1.3594 0.44141 2.0391 0.64844 0 0 0.73437-0.68359 1.4609-1.2539 2.4531-1.9258 5.4141-3.1523 8.4336-4.0859-0.34375-0.21484-0.68359-0.42969-1.0234-0.64844zm18.762 1.4766c-0.003906 0.035156-0.007812 0.066406-0.011719 0.10156 0.066407 0.058593 0.13281 0.11328 0.20312 0.17187 1.4961 1.2422 3.2305 2.2109 5.0156 3.0508-0.82422-1.2539-2.0664-2.2383-3.4805-2.8125-0.55859-0.22656-1.1367-0.39453-1.7266-0.51562zm-31.984 1.7891c-0.19922 0.16797-0.39453 0.33594-0.58594 0.50781l-0.097657 0.089844c0.21875 0.28516 0.51562 0.67969 0.51562 0.67969l0.11719 0.035157c0.019531-0.4375 0.035156-0.875 0.050781-1.3125zm30.75-4.3047c3.1367 0.33984 6.0703 1.3438 8.1367 4.1133 0.28516-1.3828 0.45703-2.7812 0.46484-4.2031 0.003906-0.98047-1.5078-1.3906-2.8867-1.8711-3.2227-1.1289-6.6641-1.418-10.086-1.6875 0 0-0.097656-0.015624-0.15625 0-0.41797 0.12891-0.82422 0.29688-1.2188 0.48438l-0.0625 0.03125c0.28516 0.96094 0.48047 1.9453 0.70312 2.9297l0.015625 0.058594c0.80078-0.015625 1.6133-0.023438 2.4219-0.007813 0.29297-0.28125 0.63281-0.41406 1.1367-0.39453 0.54297 0.035156 1.0781 0.24609 1.5312 0.54688zm-6.8242 3.582c-0.019531-0.13281-0.039062-0.26562-0.058594-0.39844-0.70703-0.26562-1.4219-0.5-2.1445-0.71484 0 0-0.058593-0.015625-0.13672-0.007812-0.26172 0.035156-0.52344 0.070312-0.78516 0.10937 1.0156 0.42578 2.0547 0.77344 3.125 1.0078zm4.1797-1.3867h-0.23828-0.30078c0.30859 0.15234 0.62109 0.30078 0.9375 0.44922-0.058593-0.058593-0.11328-0.11328-0.16016-0.16406-0.082031-0.089844-0.16406-0.18359-0.23828-0.28906zm-27.84-4.7734c-0.22656 0.10938-0.45312 0.22656-0.67578 0.34766-1.1562 0.64453-2.125 1.7266-2.168 3.1953 0.91406-0.38281 1.8203-0.78516 2.7344-1.1523 0.015625-0.30859 0.035156-0.61719 0.054687-0.92188 0.003907-0.039063 0.003907-0.074219 0.003907-0.11328 0.015625-0.44141 0.023437-0.90234 0.046875-1.3555zm22.547 0.80859c-0.62891 0.48828-1.2188 1.0234-1.7891 1.582l0.83203 0.23438c0.45312-0.050781 0.91016-0.089844 1.3672-0.11719 0 0-0.17969-0.90234-0.35938-1.6406 0 0 0.019532-0.11328-0.050781-0.054687zm-8.7695 0.52344c1.4141 0.097656 2.8281 0.24609 4.2383 0.48828 1.0469-1.1328 2.168-2.2109 3.4062-3.1367l0.039063-0.027344c-1.8086-0.078125-3.6211-0.11719-5.4336-0.14062 0 0-0.17578-0.015625-0.29297 0.023438-1.3125 0.46875-2.6055 0.98828-3.8906 1.5391 0.64453 0.41016 1.2891 0.83203 1.9297 1.25zm-9.0742-2.6172c-0.71875 0.089843-1.4336 0.21094-2.1367 0.38281-0.058594 0.55469-0.16797 1.5938-0.24609 2.457 0.53906-0.14844 1.0859-0.26562 1.6445-0.34375 0.082031-0.046874 0.16797-0.089843 0.25-0.13672 0.86328-0.46484 1.7344-0.90625 2.6172-1.3281-0.67578-0.41406-1.3711-0.79297-2.1289-1.0312zm4.6211-0.22656 0.070312 0.042969 0.03125 0.019531 0.011719-0.003906s0.32422-0.0625 0.011719-0.0625h-0.12109z"/>
</svg>
